<svg width="24" height="24" viewBox="0 0 24 24" fill="none" xmlns="http://www.w3.org/2000/svg">
<circle cx="12" cy="12" r="11" stroke="black" stroke-width="2"/>
<path d="M12 16L12 13.5L18.5 13.5C18.6326 13.5 18.7598 13.4473 18.8536 13.3536C18.9473 13.2598 19 13.1326 19 13L19 11C19 10.7239 18.7761 10.5 18.5 10.5L12 10.5L12 8C12 7.8156 11.8985 7.64617 11.7359 7.55916C11.5733 7.47215 11.3761 7.48169 11.2226 7.58397L9.72265 8.58398C9.71495 8.58911 9.7074 8.59445 9.7 8.6L5.7 11.6C5.5741 11.6944 5.5 11.8426 5.5 12C5.5 12.1574 5.5741 12.3056 5.7 12.4L9.7 15.4C9.7074 15.4056 9.71495 15.4109 9.72265 15.416L11.2226 16.416C11.3761 16.5183 11.5733 16.5278 11.7359 16.4408C11.8985 16.3538 12 16.1844 12 16Z" fill="#C4C4C4" stroke="black" stroke-linejoin="round"/>
</svg>
